<?xml version="1.0" standalone="no"?><!DOCTYPE svg PUBLIC "-//W3C//DTD SVG 1.1//EN" "http://www.w3.org/Graphics/SVG/1.1/DTD/svg11.dtd"><svg t="1644461621604" class="icon" viewBox="0 0 1024 1024" version="1.1" xmlns="http://www.w3.org/2000/svg" p-id="1138" xmlns:xlink="http://www.w3.org/1999/xlink" width="200" height="200"><defs><style type="text/css"></style></defs><path d="M545.19629549 592.50547473v189.27598c0 20.16162873-14.86051082 36.49950027-33.24061631 36.49950027s-33.24061633-16.33787155-33.24061633-36.49950027v-189.27598H318.81249022A24.46335555 24.46335555 0 0 1 294.69674897 567.65105312c0-6.30050899 2.30294467-12.34030723 6.51776791-16.94619655l68.13240052-75.17158987 29.11269664-270.87843417L365.74041914 153.94659821a20.2485323 20.2485323 0 0 1 5.3445697-27.54843234A18.85807514 18.85807514 0 0 1 381.7306764 123.05237834h260.45000554a19.55330372 19.55330372 0 0 1 19.292593 19.85746622c0 3.91066074-1.12974644 7.7778697-3.25888394 11.03675365L625.36484074 204.7417361l28.54782343 270.05285025L722.69684147 550.70485657c9.08142329 9.99391079 8.56000186 25.72345734-1.17319822 35.10904311a23.68122339 23.68122339 0 0 1-16.42477512 6.69157505h-159.90257264zM589.29985833 505.34119194L556.27650094 192.575236H467.63485741l-33.71858596 313.59153988 155.38358688-0.82558394z" fill="#575D6C" p-id="1139"></path></svg>